<svg width="74" height="69" viewBox="0 0 74 69" fill="none" xmlns="http://www.w3.org/2000/svg">
<path d="M58.0708 52.3931H51.5459C51.6959 49.1231 53.2108 46.7682 56.0908 45.3282C56.8108 44.9382 57.6058 44.6682 58.4758 44.5182C59.8557 44.2782 61.1307 44.1582 62.3007 44.1582C66.4106 44.1582 69.2156 45.0132 70.7156 46.7232C71.7056 47.7131 72.2906 48.7631 72.4706 49.8731C72.6806 50.7131 72.7855 51.6581 72.7855 52.7081L72.6506 63.1479C72.6206 64.6779 72.6955 65.7429 72.8755 66.3429C73.0555 66.9429 73.4305 67.3179 74.0005 67.4679V67.8728H66.8006L66.2156 65.6229H66.0807C64.4607 67.6928 61.9107 68.7278 58.4308 68.7278C57.0508 68.7278 55.8358 68.5478 54.7858 68.1878C53.7658 67.8578 52.9859 67.4529 52.4459 66.9729C51.9359 66.4929 51.5159 65.9229 51.1859 65.2629C50.8559 64.6029 50.6459 64.0329 50.5559 63.5529C50.4959 63.0729 50.4659 62.5929 50.4659 62.1129C50.4659 60.193 51.0509 58.678 52.2209 57.568C52.6709 57.118 53.3308 56.698 54.2008 56.308C55.2808 55.798 56.8708 55.348 58.9708 54.958C59.6907 54.838 60.3357 54.763 60.9057 54.733C62.6757 54.523 63.6207 54.403 63.7407 54.373C64.5207 54.2231 65.0607 54.0131 65.3607 53.7431C65.6907 53.4731 65.8857 53.0231 65.9457 52.3931V51.7631C65.8557 49.7531 64.6257 48.7481 62.2557 48.7481C59.4658 48.7481 58.0708 49.9631 58.0708 52.3931ZM65.9907 58.423V56.983C65.0007 57.463 64.3407 57.718 64.0107 57.748C63.2307 57.868 62.3907 58.018 61.4907 58.198C58.8208 58.618 57.4858 59.713 57.4858 61.4829C57.4858 62.3829 57.8158 63.0579 58.4758 63.5079C59.1658 63.9279 60.0057 64.1379 60.9957 64.1379C61.6857 64.1379 62.3757 64.0029 63.0657 63.7329C63.8457 63.4029 64.5207 62.7729 65.0907 61.8429C65.6907 60.883 65.9907 59.743 65.9907 58.423Z" fill="#EC2820"/>
<path d="M33.8742 36.9473V54.272L41.7041 45.5871H49.939L40.8941 54.587L50.749 68.4468H42.6041L36.2142 58.9519L33.8742 61.3369V68.4468H27.0343V36.9473H33.8742Z" fill="#EC2820"/>
<path d="M0 45.9136H6.5699V48.6585C8.33987 46.2586 10.9798 45.0586 14.4898 45.0586C16.4098 45.0586 18.0447 45.5536 19.3947 46.5436C21.2247 47.7136 22.1397 50.3385 22.1397 54.4185V68.7732H15.2998V55.5434C15.2998 51.6135 14.0098 49.6485 11.4298 49.6485C9.62985 49.6485 8.30988 50.5635 7.46989 52.3935C7.0499 53.4435 6.8399 54.6135 6.8399 55.9034V68.7732H0V45.9136Z" fill="#EC2820"/>
<path d="M53.9049 24.8846H60.8348C59.4548 29.8646 55.4949 32.3545 48.955 32.3545C44.425 32.3545 41.1101 30.9745 39.0101 28.2146C38.0201 26.8646 37.3451 25.2746 36.9851 23.4446C36.7751 22.2447 36.6701 21.1047 36.6701 20.0247C36.6701 16.0948 37.8551 13.0798 40.2251 10.9798C42.625 8.84987 45.715 7.78488 49.4949 7.78488C51.1149 7.78488 52.7649 8.09988 54.4449 8.72987C55.7649 9.17986 56.8598 9.82485 57.7298 10.6648C58.7198 11.5348 59.5598 12.8398 60.2498 14.5798C60.9398 16.3198 61.2848 18.2847 61.2848 20.4747V21.4647H43.78C43.78 23.1147 44.23 24.5846 45.13 25.8746C46.03 27.1346 47.41 27.7646 49.2699 27.7646C50.4099 27.7646 51.3999 27.5246 52.2399 27.0446C53.0799 26.5346 53.6349 25.8146 53.9049 24.8846ZM43.78 17.9097H54.1749C54.0549 14.2198 52.4649 12.3748 49.4049 12.3748C46.045 12.3748 44.17 14.2198 43.78 17.9097ZM46.165 5.35492H39.3251V0H46.165V5.35492ZM58.8548 5.35492H52.0149V0H58.8548V5.35492Z" fill="#EC2820"/>
<path d="M27.025 31.4995V0H33.8649V31.4995H27.025Z" fill="#EC2820"/>
<path d="M0.040802 39.8247V8.64014H6.47571L6.43071 11.3851H6.5657C8.51567 8.98514 10.9756 7.78516 13.9456 7.78516C17.1555 7.78516 19.6905 8.89514 21.5505 11.1151C23.4104 13.3351 24.3404 16.335 24.3404 20.115C24.3404 23.8049 23.3804 26.7599 21.4605 28.9798C19.5705 31.2298 17.0205 32.3548 13.8106 32.3548C13.3006 32.3548 12.7156 32.3098 12.0556 32.2198C11.4856 32.1298 10.6306 31.8298 9.49066 31.3198C8.41068 30.7498 7.54069 30.0298 6.8807 29.1598V39.8247H0.040802ZM6.5657 20.025C6.5657 22.3649 7.0007 24.2399 7.87068 25.6499C8.77067 27.0599 10.1207 27.7649 11.9206 27.7649C13.6606 27.7649 14.9806 27.0599 15.8806 25.6499C16.7806 24.2399 17.2305 22.3649 17.2305 20.025C17.2305 18.525 17.0505 17.235 16.6906 16.155C16.3606 15.075 15.8956 14.2801 15.2956 13.7701C14.7256 13.2601 14.1556 12.9001 13.5856 12.6901C13.0456 12.4801 12.4906 12.3751 11.9206 12.3751C10.5406 12.3751 9.29566 12.9451 8.18568 14.0851C7.1057 15.195 6.5657 17.175 6.5657 20.025Z" fill="#EC2820"/>
</svg>
