<svg width="40" height="40" viewBox="0 0 40 40" fill="none" xmlns="http://www.w3.org/2000/svg">
<g clip-path="url(#clip0_1280_39)">
<path d="M28.121 13.856C27.9474 13.4065 27.6816 12.9984 27.3406 12.6578C26.9997 12.3173 26.5912 12.052 26.1415 11.879C25.5224 11.6498 24.8686 11.5287 24.2085 11.521C23.1085 11.471 22.781 11.4585 20 11.4585C17.219 11.4585 16.8895 11.471 15.7915 11.521C15.1307 11.5285 14.4762 11.6496 13.8565 11.879C13.4069 12.0525 12.9987 12.3183 12.6581 12.6593C12.3175 13.0002 12.0521 13.4087 11.879 13.8585C11.6498 14.4776 11.5287 15.1314 11.521 15.7915C11.471 16.8915 11.4585 17.2185 11.4585 20C11.4585 22.7815 11.471 23.1105 11.521 24.2085C11.5285 24.8693 11.6496 25.5238 11.879 26.1435C12.0525 26.5931 12.3183 27.0013 12.6593 27.3419C13.0002 27.6825 13.4087 27.9479 13.8585 28.121C14.4776 28.3502 15.1314 28.4713 15.7915 28.479C16.8915 28.529 17.2185 28.5395 20 28.5395C22.7815 28.5395 23.1105 28.529 24.2085 28.477C24.8691 28.47 25.5236 28.3496 26.1435 28.121C26.5931 27.9475 27.0013 27.6817 27.3419 27.3407C27.6825 26.9998 27.9479 26.5913 28.121 26.1415C28.3502 25.5224 28.4713 24.8686 28.479 24.2085C28.529 23.1085 28.5395 22.781 28.5395 20C28.5395 17.219 28.529 16.8895 28.477 15.7915C28.4699 15.1307 28.3495 14.476 28.121 13.856ZM20 25.35C18.9419 25.35 17.9075 25.0362 17.0277 24.4484C16.1479 23.8605 15.4622 23.0249 15.0572 22.0474C14.6523 21.0698 14.5464 19.9941 14.7528 18.9563C14.9592 17.9185 15.4688 16.9652 16.217 16.217C16.9652 15.4688 17.9185 14.9592 18.9563 14.7528C19.9941 14.5464 21.0698 14.6523 22.0474 15.0572C23.0249 15.4622 23.8605 16.1479 24.4484 17.0277C25.0362 17.9075 25.35 18.9419 25.35 20C25.35 21.4189 24.7863 22.7797 23.783 23.783C22.7797 24.7863 21.4189 25.35 20 25.35ZM25.5605 15.6895C25.3133 15.6895 25.0716 15.6162 24.866 15.4788C24.6605 15.3415 24.5003 15.1463 24.4057 14.9179C24.311 14.6894 24.2863 14.4381 24.3345 14.1956C24.3828 13.9532 24.5018 13.7304 24.6766 13.5556C24.8514 13.3808 25.0742 13.2617 25.3166 13.2135C25.5591 13.1653 25.8104 13.19 26.0389 13.2847C26.2673 13.3793 26.4625 13.5395 26.5998 13.745C26.7372 13.9506 26.8105 14.1923 26.8105 14.4395C26.8105 14.771 26.6788 15.089 26.4444 15.3234C26.21 15.5578 25.892 15.6895 25.5605 15.6895ZM23.473 20C23.473 20.6869 23.2693 21.3584 22.8877 21.9295C22.5061 22.5006 21.9637 22.9458 21.3291 23.2086C20.6945 23.4715 19.9961 23.5403 19.3225 23.4063C18.6488 23.2723 18.0299 22.9415 17.5442 22.4558C17.0585 21.9701 16.7277 21.3512 16.5937 20.6775C16.4597 20.0039 16.5285 19.3055 16.7914 18.6709C17.0542 18.0363 17.4994 17.4939 18.0705 17.1123C18.6416 16.7307 19.3131 16.527 20 16.527C20.9211 16.527 21.8045 16.8929 22.4558 17.5442C23.1071 18.1955 23.473 19.0789 23.473 20ZM20 0C8.9545 0 0 8.9545 0 20C0 31.0455 8.9545 40 20 40C31.0455 40 40 31.0455 40 20C40 8.9545 31.0455 0 20 0ZM30.354 24.2935C30.3366 25.1581 30.1724 26.0134 29.8685 26.823C29.601 27.5148 29.192 28.143 28.6675 28.6675C28.143 29.192 27.5148 29.601 26.823 29.8685C26.0142 30.1721 25.1597 30.3363 24.296 30.354C23.1835 30.404 22.829 30.4165 20 30.4165C17.171 30.4165 16.8165 30.404 15.704 30.354C14.8403 30.3363 13.9858 30.1721 13.177 29.8685C12.4852 29.601 11.8569 29.1919 11.3324 28.6674C10.8078 28.143 10.3986 27.5148 10.131 26.823C9.82781 26.0141 9.66383 25.1597 9.646 24.296C9.596 23.1835 9.5835 22.829 9.5835 20C9.5835 17.171 9.596 16.8165 9.646 15.704C9.6631 14.8404 9.82641 13.986 10.129 13.177C10.3966 12.484 10.8062 11.8547 11.3314 11.3294C11.8567 10.8042 12.486 10.3946 13.179 10.127C13.988 9.82441 14.8424 9.6611 15.706 9.644C16.8185 9.594 17.173 9.5815 20.002 9.5815C22.831 9.5815 23.1855 9.594 24.298 9.644C25.1616 9.6611 26.016 9.82441 26.825 10.127C27.5172 10.395 28.1457 10.8048 28.6701 11.3301C29.1946 11.8553 29.6035 12.4844 29.8705 13.177C30.1741 13.9858 30.3383 14.8403 30.356 15.704C30.406 16.8165 30.4185 17.171 30.4185 20C30.4185 22.829 30.406 23.1835 30.356 24.296L30.354 24.2935Z" fill="#EC2820"/>
</g>
<defs>
<clipPath id="clip0_1280_39">
<rect width="40" height="40" fill="white"/>
</clipPath>
</defs>
</svg>
