<svg width="40" height="40" viewBox="0 0 40 40" fill="none" xmlns="http://www.w3.org/2000/svg">
<g clip-path="url(#clip0_1280_37)">
<path fill-rule="evenodd" clip-rule="evenodd" d="M39.9994 19.9997C39.9994 31.0451 31.0451 39.9994 19.9997 39.9994C8.95436 39.9994 0 31.0451 0 19.9997C0 8.95436 8.95376 0 19.9997 0C31.0457 0 39.9994 8.95376 39.9994 19.9997ZM20.7161 14.7647C18.7709 15.5747 14.8831 17.2493 9.05276 19.7885C8.10596 20.1653 7.60996 20.5337 7.56476 20.8937C7.48856 21.4997 8.25116 21.7397 9.28856 22.0685C9.43015 22.1129 9.57655 22.1585 9.72655 22.2071C10.7465 22.5395 12.1211 22.9271 12.8351 22.9433C13.4831 22.9573 14.2061 22.6901 15.0041 22.1417C20.4513 18.4649 23.2633 16.6063 23.4401 16.5659C23.5649 16.5377 23.7401 16.5023 23.8541 16.6061C23.9681 16.7099 23.9597 16.9061 23.9471 16.9595C23.8721 17.2817 20.8799 20.0633 19.3313 21.5027C18.8513 21.9515 18.5063 22.2695 18.4367 22.3427C18.2795 22.5053 18.1199 22.6595 17.9663 22.8071C17.0177 23.7221 16.3061 24.4079 18.0059 25.5275C18.8225 26.0675 19.4759 26.5109 20.1281 26.9549C20.8397 27.4397 21.5501 27.9233 22.4681 28.5257C22.7021 28.6793 22.9253 28.8389 23.1431 28.9937C23.9717 29.5847 24.7163 30.1157 25.6361 30.0305C26.1707 29.9819 26.7227 29.4791 27.0029 27.9803C27.6629 24.4403 28.9679 16.7639 29.2691 13.6013C29.2872 13.3385 29.2759 13.0745 29.2355 12.8141C29.2116 12.6048 29.1098 12.412 28.9505 12.2741C28.7105 12.0797 28.3415 12.0389 28.1759 12.0413C27.4247 12.0533 26.2703 12.4541 20.7161 14.7647Z" fill="#EC2820"/>
</g>
<defs>
<clipPath id="clip0_1280_37">
<rect width="40" height="40" fill="white"/>
</clipPath>
</defs>
</svg>
