<svg width="40" height="40" viewBox="0 0 40 40" fill="none" xmlns="http://www.w3.org/2000/svg">
<g clip-path="url(#clip0_1280_41)">
<path d="M20 0C8.95417 0 0 8.95417 0 20C0 31.0458 8.95417 40 20 40C31.0458 40 40 31.0458 40 20C40 8.95417 31.0458 0 20 0ZM27.6917 22.5646C27.6917 22.5646 29.4625 24.3104 29.8958 25.1208C29.9049 25.1339 29.9126 25.1478 29.9187 25.1625C30.0958 25.4604 30.1375 25.6917 30.05 25.8646C29.9042 26.1521 29.4042 26.2938 29.2333 26.3063H26.1083C25.8917 26.3063 25.4375 26.25 24.8875 25.8708C24.4646 25.575 24.0479 25.0896 23.6417 24.6167C23.0354 23.9125 22.5104 23.3042 21.9812 23.3042C21.914 23.3041 21.8473 23.3147 21.7833 23.3354C21.3833 23.4646 20.8708 24.0354 20.8708 25.5562C20.8708 26.0312 20.4958 26.3042 20.2312 26.3042H18.8021C18.3146 26.3042 15.775 26.1333 13.525 23.7604C10.7708 20.8542 8.29167 15.025 8.27083 14.9708C8.11458 14.5937 8.4375 14.3917 8.79167 14.3917H11.9479C12.3687 14.3917 12.5062 14.6479 12.6021 14.875C12.9479 15.7336 13.3495 16.5687 13.8042 17.375C14.9021 19.3021 15.575 20.0875 16.1146 20.0875C16.2158 20.0863 16.3151 20.0606 16.4042 20.0125C17.1083 19.6208 16.9771 17.1104 16.9458 16.5896C16.9458 16.4917 16.9458 15.4667 16.5812 14.975C16.3208 14.6187 15.8833 14.4833 15.6167 14.4333C15.7251 14.2841 15.8681 14.1633 16.0333 14.0812C16.5167 13.8396 17.3875 13.8042 18.2521 13.8042H18.7333C19.6708 13.8167 19.9125 13.8771 20.2521 13.9604C20.9396 14.125 20.9542 14.5687 20.8937 16.0875C20.875 16.5187 20.8562 17.0062 20.8562 17.5812C20.8562 17.7062 20.85 17.8417 20.85 17.9812C20.8292 18.7542 20.8042 19.6312 21.35 19.9917C21.4212 20.0362 21.5035 20.06 21.5875 20.0604C21.7771 20.0604 22.3479 20.0604 23.8937 17.4083C24.3706 16.554 24.7848 15.6663 25.1333 14.7521C25.1646 14.7 25.2562 14.5313 25.3646 14.4667C25.4452 14.4256 25.5346 14.4049 25.625 14.4062H29.3354C29.7396 14.4062 30.0167 14.4667 30.0687 14.6229C30.1604 14.8708 30.0521 15.6271 28.3583 17.9208L27.6021 18.9187C26.0667 20.9312 26.0667 21.0333 27.6979 22.5604L27.6917 22.5646Z" fill="#EC2820"/>
</g>
<defs>
<clipPath id="clip0_1280_41">
<rect width="40" height="40" fill="white"/>
</clipPath>
</defs>
</svg>
