<svg width="302" height="135" viewBox="0 0 302 135" fill="none" xmlns="http://www.w3.org/2000/svg">
<path d="M2 2C7.92254 11.4774 12.6692 21.6168 18.6826 31.0507C31.1332 50.5835 44.2141 69.1185 61.5 84.4575C68.4109 90.59 92.2821 107.056 99.5693 111.93C122.845 127.499 147.136 132.972 174.958 133.094C201.599 133.211 226.79 128.702 250.422 116.134C263.711 109.067 275.704 99.1135 288.24 90.8127C288.916 90.3649 289.878 89.8078 290.964 89.2009M290.964 89.2009C296.876 85.8971 306.467 81.1163 293.661 84.4575C274.918 89.3476 255.797 93.0861 237.124 98.0908C220.988 102.416 270.094 92.6484 286.509 89.5384C288.575 89.1469 290.015 89.0577 290.964 89.2009ZM290.964 89.2009C295.487 89.8839 288.867 95.8492 285.88 99.5426C280.621 106.047 275.647 112.727 270.537 119.34" stroke="#EC2820" stroke-width="3" stroke-linecap="round"/>
</svg>
