<svg width="166" height="147" viewBox="0 0 166 147" fill="none" xmlns="http://www.w3.org/2000/svg">
<path d="M128.758 11.9494C99.8742 5.75989 72.5274 29.3817 59.6575 53.0578C48.3284 73.8993 42.3246 104.242 52.2632 126.912C59.9508 144.447 81.5032 147.007 98.1251 144.165C143.56 136.399 181.646 87.2058 155.518 42.9347C145.058 25.2102 124.654 16.8288 104.991 14.6782C79.8151 11.9246 52.7604 19.7108 32.6333 35.1004C15.086 48.5173 7.65384 69.2478 10.1865 90.9093C12.4066 109.898 22.1337 130.651 41.524 137.211C65.6342 145.368 89.985 134.604 106.4 116.701C126.112 95.2019 141.036 64.2583 143.107 34.9243C144.004 22.2184 140.38 7.73847 126.734 3.58683C110.146 -1.45981 89.0572 6.5416 74.3579 13.4458C42.8645 28.2382 17.9619 53.6396 2 84.0432" stroke="#EC2820" stroke-width="3" stroke-linecap="round"/>
</svg>
