<svg width="70" height="68" viewBox="0 0 70 68" fill="none" xmlns="http://www.w3.org/2000/svg">
<g clip-path="url(#clip0_1327_73)">
<path fill-rule="evenodd" clip-rule="evenodd" d="M70 0H0V68H70V0ZM27.6838 17.3784H32.7919V11.5892H27.6838V17.3784ZM36.7649 17.3784H41.873V11.5892H36.7649V17.3784ZM46.6973 46.3243C47.3784 45.0757 47.8324 43.827 48.0027 42.5216H43.0649L43.0648 42.5217C42.7811 43.2028 42.4973 43.8838 42.1 44.6216C41.7027 45.3027 41.2486 45.927 40.6243 46.4946C40 47.1189 39.2622 47.573 38.3541 47.9135C37.4459 48.3108 36.3108 48.4811 35.0054 48.4811C33.7 48.4811 32.5649 48.2541 31.5432 47.8C30.5216 47.3459 29.6135 46.7216 28.9324 45.8703C28.1946 45.0189 27.627 44.0541 27.2865 42.8622C26.8892 41.6703 26.6622 40.3649 26.6622 38.9459H48.3432V36.3919C48.3432 33.8946 48.0027 31.6811 47.3784 29.7513C46.6405 27.9351 45.7324 26.3459 44.5405 25.0973C43.2919 23.8486 41.873 22.9405 40.1703 22.3162C38.4676 21.6919 36.6514 21.4081 34.6081 21.4081C33.6432 21.4081 32.6216 21.5216 31.6 21.8054C30.5784 22.0892 29.5568 22.4865 28.5919 22.9973C27.5703 23.5649 26.6622 24.2459 25.7541 25.0973C24.9027 25.9486 24.1081 26.9703 23.427 28.1054C22.7459 29.2405 22.2351 30.5459 21.8378 32.0216C21.3838 33.4973 21.2135 35.1432 21.2135 36.9595C21.2135 39.627 21.5541 42.0108 22.2919 43.9973C22.973 45.9838 23.9378 47.6297 25.1865 48.9351C26.3784 50.2973 27.8541 51.2622 29.5568 51.9432C31.2595 52.5676 33.0757 52.9081 35.0622 52.9081C36.8784 52.9081 38.5811 52.6243 40.1135 52C41.5892 51.4324 42.8946 50.6378 43.973 49.6162C45.1081 48.6514 46.0162 47.573 46.6973 46.3243ZM42.6108 31C42.9514 32.1351 43.1784 33.4405 43.2351 34.8595H26.6622C26.7189 33.5541 27.0027 32.3622 27.4568 31.227C27.9108 30.1486 28.4784 29.1838 29.2162 28.3892C29.9541 27.5946 30.8054 26.9703 31.827 26.5162C32.7919 26.0622 33.8703 25.8351 35.0054 25.8351C36.2541 25.8351 37.3324 26.0054 38.3541 26.4027C39.3189 26.8568 40.227 27.4243 40.9081 28.1622C41.5892 28.9568 42.1568 29.8649 42.6108 31Z" fill="#EC2820"/>
</g>
<defs>
<clipPath id="clip0_1327_73">
<rect width="70" height="68" rx="7" fill="white"/>
</clipPath>
</defs>
</svg>
